<svg width="401" height="74" viewBox="0 0 401 74" fill="#C6D6D7" xmlns="http://www.w3.org/2000/svg">
<path d="M21.61 55.9425V73.8149L0 42.1267L21.61 55.9425Z" fill="#C6D6D7"/>
<path d="M43.2209 42.1267L21.6094 73.8149V55.9425L43.2209 42.1267Z" fill="#C6D6D7"/>
<path d="M43.2209 37.6618L21.6094 25.3342V51.4791L43.2209 37.6618Z" fill="#C6D6D7"/>
<path d="M43.2209 37.662L21.6094 0V25.3345L43.2209 37.662Z" fill="#C6D6D7"/>
<path d="M21.61 0V25.3345L0 37.662L21.61 0Z" fill="#C6D6D7"/>
<path d="M21.61 25.3342V51.4791L0 37.6618L21.61 25.3342Z" fill="#C6D6D7"/>
<path d="M65.1484 19.2365C65.1484 17.8119 65.4402 16.5504 66.0238 15.4519C66.6074 14.3534 67.4226 13.5038 68.4696 12.903C69.5166 12.3023 70.7267 12.0019 72.0998 12.0019C73.4214 12.0019 74.5971 12.3109 75.6269 12.9288C76.6739 13.5467 77.4892 14.4135 78.0728 15.5291C78.6564 16.6448 78.9481 17.9149 78.9481 19.3395V20.4208H68.8301C68.8816 21.279 69.2077 21.9741 69.8084 22.5062C70.4091 23.0383 71.1987 23.3043 72.177 23.3043C72.8636 23.3043 73.4986 23.1584 74.0822 22.8666C74.6658 22.5577 75.3008 22.0342 75.9874 21.2962L78.2788 23.639C77.4892 24.5144 76.5795 25.2009 75.5497 25.6987C74.5199 26.1793 73.3957 26.4196 72.177 26.4196C70.7868 26.4196 69.5595 26.1192 68.4954 25.5185C67.4312 24.9177 66.6074 24.0767 66.0238 22.9954C65.4402 21.8969 65.1484 20.6439 65.1484 19.2365ZM75.2408 17.7432C75.1721 16.988 74.8374 16.3616 74.2367 15.8638C73.6531 15.3661 72.9408 15.1172 72.0998 15.1172C71.2244 15.1172 70.5035 15.3575 69.9371 15.8381C69.3707 16.3186 69.0189 16.9537 68.8816 17.7432H75.2408Z" fill="#C6D6D7"/>
<path d="M90.8527 15.6836V21.1674C90.8527 21.6308 90.9557 21.9655 91.1617 22.1715C91.3848 22.3775 91.7452 22.4805 92.243 22.4805H95.3582V26.0334H91.9083C90.3979 26.0334 89.2307 25.6815 88.4069 24.9778C87.583 24.2569 87.1711 23.2357 87.1711 21.9141V15.6836H83.8241V12.3881H87.1711V8.91246H90.8527V12.3881H96.2078V15.6836H90.8527Z" fill="#C6D6D7"/>
<path d="M101.599 7.23899H105.28V13.6497H105.332C106.293 12.5512 107.606 12.0019 109.271 12.0019C110.266 12.0019 111.15 12.2422 111.923 12.7228C112.695 13.2034 113.296 13.8814 113.725 14.7567C114.154 15.6321 114.369 16.6448 114.369 17.7947V26.0334H110.687V18.2839C110.687 17.3742 110.455 16.6619 109.992 16.147C109.528 15.6321 108.893 15.3746 108.087 15.3746C107.211 15.3746 106.525 15.6321 106.027 16.147C105.529 16.6448 105.28 17.3399 105.28 18.2324V26.0334H101.599V7.23899Z" fill="#C6D6D7"/>
<path d="M118.858 19.2365C118.858 17.8119 119.15 16.5504 119.734 15.4519C120.317 14.3534 121.133 13.5038 122.18 12.903C123.227 12.3023 124.437 12.0019 125.81 12.0019C127.131 12.0019 128.307 12.3109 129.337 12.9288C130.384 13.5467 131.199 14.4135 131.783 15.5291C132.366 16.6448 132.658 17.9149 132.658 19.3395V20.4208H122.54C122.592 21.279 122.918 21.9741 123.518 22.5062C124.119 23.0383 124.909 23.3043 125.887 23.3043C126.574 23.3043 127.209 23.1584 127.792 22.8666C128.376 22.5577 129.011 22.0342 129.697 21.2962L131.989 23.639C131.199 24.5144 130.29 25.2009 129.26 25.6987C128.23 26.1793 127.106 26.4196 125.887 26.4196C124.497 26.4196 123.27 26.1192 122.205 25.5185C121.141 24.9177 120.317 24.0767 119.734 22.9954C119.15 21.8969 118.858 20.6439 118.858 19.2365ZM128.951 17.7432C128.882 16.988 128.547 16.3616 127.947 15.8638C127.363 15.3661 126.651 15.1172 125.81 15.1172C124.934 15.1172 124.214 15.3575 123.647 15.8381C123.081 16.3186 122.729 16.9537 122.592 17.7432H128.951Z" fill="#C6D6D7"/>
<path d="M138.41 12.3881H141.937V13.6497H141.988C142.572 13.0661 143.172 12.6456 143.79 12.3881C144.425 12.1307 145.146 12.0019 145.953 12.0019C147.137 12.0019 148.159 12.3538 149.017 13.0575C149.875 13.7441 150.476 14.6881 150.819 15.8896L147.369 17.0224C146.974 15.9067 146.159 15.3489 144.923 15.3489C143.996 15.3489 143.293 15.6235 142.812 16.1728C142.331 16.7048 142.091 17.4429 142.091 18.3869V26.0334H138.41V12.3881Z" fill="#C6D6D7"/>
<path d="M154.665 19.2365C154.665 17.8119 154.957 16.5504 155.54 15.4519C156.124 14.3534 156.939 13.5038 157.986 12.903C159.033 12.3023 160.243 12.0019 161.616 12.0019C162.938 12.0019 164.114 12.3109 165.144 12.9288C166.191 13.5467 167.006 14.4135 167.589 15.5291C168.173 16.6448 168.465 17.9149 168.465 19.3395V20.4208H158.347C158.398 21.279 158.724 21.9741 159.325 22.5062C159.926 23.0383 160.715 23.3043 161.694 23.3043C162.38 23.3043 163.015 23.1584 163.599 22.8666C164.182 22.5577 164.818 22.0342 165.504 21.2962L167.795 23.639C167.006 24.5144 166.096 25.2009 165.066 25.6987C164.037 26.1793 162.912 26.4196 161.694 26.4196C160.303 26.4196 159.076 26.1192 158.012 25.5185C156.948 24.9177 156.124 24.0767 155.54 22.9954C154.957 21.8969 154.665 20.6439 154.665 19.2365ZM164.757 17.7432C164.689 16.988 164.354 16.3616 163.753 15.8638C163.17 15.3661 162.457 15.1172 161.616 15.1172C160.741 15.1172 160.02 15.3575 159.454 15.8381C158.887 16.3186 158.536 16.9537 158.398 17.7432H164.757Z" fill="#C6D6D7"/>
<path d="M173.341 21.3991V12.3881H177.022V20.5495C177.022 22.2144 177.846 23.0469 179.494 23.0469C180.232 23.0469 180.816 22.8237 181.245 22.3775C181.691 21.9141 181.914 21.3047 181.914 20.5495V12.3881H185.596V26.0334H182.069V24.8233H182.017C181.64 25.3039 181.116 25.6901 180.447 25.9819C179.794 26.2737 179.108 26.4196 178.387 26.4196C176.774 26.4196 175.529 25.9819 174.654 25.1065C173.778 24.214 173.341 22.9782 173.341 21.3991Z" fill="#C6D6D7"/>
<path d="M190.086 12.3881H193.33V13.5724H193.381C193.673 13.109 194.042 12.7572 194.488 12.5169C194.952 12.2594 195.458 12.1307 196.007 12.1307C197.088 12.1307 197.955 12.637 198.607 13.6497H198.659C199.345 12.637 200.289 12.1307 201.491 12.1307C202.486 12.1307 203.293 12.4825 203.911 13.1863C204.529 13.89 204.838 14.8082 204.838 15.941V26.0334H201.439V16.5847C201.439 16.1899 201.336 15.8896 201.13 15.6836C200.925 15.4776 200.633 15.3746 200.255 15.3746C199.895 15.3746 199.603 15.4948 199.38 15.7351C199.174 15.9582 199.071 16.2672 199.071 16.6619V26.0334H195.853V16.5847C195.853 16.2071 195.75 15.9153 195.544 15.7093C195.355 15.4862 195.08 15.3746 194.72 15.3746C194.342 15.3746 194.042 15.4948 193.819 15.7351C193.596 15.9582 193.484 16.2672 193.484 16.6619V26.0334H190.086V12.3881Z" fill="#C6D6D7"/>
<path d="M230.398 17.2026H226.793V13.9071H230.398V11.899C230.398 10.6975 230.793 9.75349 231.582 9.06694C232.389 8.36322 233.496 8.01136 234.903 8.01136H238.868V11.2811H235.341C234.98 11.2811 234.706 11.3755 234.517 11.5643C234.328 11.7531 234.234 12.0191 234.234 12.3624V13.9071H239.692V17.2026H234.234V26.0334H230.398V17.2026Z" fill="#C6D6D7"/>
<path d="M244.182 19.2108C244.182 17.8033 244.474 16.5589 245.057 15.4776C245.641 14.3791 246.456 13.5295 247.503 12.9288C248.567 12.3109 249.777 12.0019 251.133 12.0019C252.506 12.0019 253.716 12.3109 254.763 12.9288C255.827 13.5295 256.651 14.3791 257.235 15.4776C257.818 16.5589 258.11 17.8033 258.11 19.2108C258.11 20.6182 257.818 21.8711 257.235 22.9696C256.651 24.0509 255.827 24.9006 254.763 25.5185C253.716 26.1192 252.506 26.4196 251.133 26.4196C249.777 26.4196 248.567 26.1192 247.503 25.5185C246.456 24.9006 245.641 24.0509 245.057 22.9696C244.474 21.8711 244.182 20.6182 244.182 19.2108ZM254.429 19.2108C254.429 18.0093 254.137 17.0739 253.553 16.4045C252.987 15.7179 252.18 15.3746 251.133 15.3746C250.103 15.3746 249.297 15.7179 248.713 16.4045C248.147 17.0739 247.863 18.0093 247.863 19.2108C247.863 20.4122 248.147 21.3562 248.713 22.0428C249.297 22.7122 250.103 23.0469 251.133 23.0469C252.163 23.0469 252.97 22.7036 253.553 22.017C254.137 21.3305 254.429 20.3951 254.429 19.2108Z" fill="#C6D6D7"/>
<path d="M262.857 21.3991V12.3881H266.539V20.5495C266.539 22.2144 267.363 23.0469 269.011 23.0469C269.749 23.0469 270.332 22.8237 270.761 22.3775C271.208 21.9141 271.431 21.3047 271.431 20.5495V12.3881H275.112V26.0334H271.585V24.8233H271.534C271.156 25.3039 270.633 25.6901 269.963 25.9819C269.311 26.2737 268.625 26.4196 267.904 26.4196C266.29 26.4196 265.046 25.9819 264.171 25.1065C263.295 24.214 262.857 22.9782 262.857 21.3991Z" fill="#C6D6D7"/>
<path d="M280.632 12.3881H284.314V13.6754H284.365C284.914 13.1262 285.507 12.7142 286.142 12.4396C286.777 12.1478 287.498 12.0019 288.304 12.0019C289.197 12.0019 290.029 12.2165 290.802 12.6456C291.574 13.0575 292.2 13.7012 292.681 14.5765C293.162 15.4347 293.402 16.5075 293.402 17.7947V26.0334H289.72V18.2839C289.72 17.4086 289.497 16.7048 289.051 16.1728C288.605 15.6407 287.961 15.3746 287.12 15.3746C286.245 15.3746 285.558 15.6321 285.06 16.147C284.563 16.6448 284.314 17.3399 284.314 18.2324V26.0334H280.632V12.3881Z" fill="#C6D6D7"/>
<path d="M297.609 19.2108C297.609 17.8376 297.875 16.6019 298.407 15.5034C298.939 14.4049 299.685 13.5467 300.647 12.9288C301.608 12.3109 302.698 12.0019 303.916 12.0019C305.461 12.0019 306.671 12.4139 307.546 13.2377H307.598V7.23899H311.28V26.0334H307.881V24.8491H307.83C306.817 25.8961 305.495 26.4196 303.865 26.4196C302.663 26.4196 301.582 26.1192 300.621 25.5185C299.677 24.9177 298.939 24.0767 298.407 22.9954C297.875 21.8969 297.609 20.6353 297.609 19.2108ZM307.598 20.0861V18.3097C307.598 17.7947 307.461 17.3142 307.186 16.8679C306.911 16.4216 306.525 16.0612 306.027 15.7866C305.547 15.5119 305.006 15.3746 304.405 15.3746C303.444 15.3746 302.68 15.7265 302.114 16.4302C301.565 17.1168 301.29 18.0436 301.29 19.2108C301.29 20.3607 301.573 21.2876 302.14 21.9913C302.706 22.695 303.453 23.0469 304.38 23.0469C305.307 23.0469 306.07 22.7637 306.671 22.1973C307.289 21.6137 307.598 20.91 307.598 20.0861Z" fill="#C6D6D7"/>
<path d="M316.645 22.3775C316.645 21.1074 317.074 20.1204 317.932 19.4167C318.807 18.713 320.258 18.1981 322.283 17.872C323.347 17.7003 324.068 17.5115 324.446 17.3056C324.84 17.0824 325.038 16.7907 325.038 16.4302C325.038 16.0183 324.849 15.6922 324.471 15.4519C324.094 15.2116 323.579 15.0914 322.927 15.0914C322.189 15.0914 321.545 15.3146 320.996 15.7608C320.464 16.2071 320.12 16.7992 319.966 17.5373L316.542 16.7649C316.713 15.8381 317.1 15.0142 317.7 14.2933C318.301 13.5724 319.056 13.0146 319.966 12.6198C320.876 12.2079 321.863 12.0019 322.927 12.0019C324.677 12.0019 326.076 12.4911 327.123 13.4695C328.17 14.4478 328.694 15.7522 328.694 17.3828V26.0334H325.398V24.5144H325.347C324.952 25.1151 324.394 25.5871 323.673 25.9304C322.97 26.2565 322.171 26.4196 321.279 26.4196C320.386 26.4196 319.588 26.2479 318.885 25.9046C318.181 25.5614 317.632 25.0808 317.237 24.4629C316.842 23.845 316.645 23.1498 316.645 22.3775ZM325.192 20.9615V19.4167H325.141C324.986 19.6742 324.729 19.8801 324.368 20.0346C324.008 20.1891 323.442 20.3436 322.669 20.498C321.708 20.704 321.047 20.9271 320.687 21.1674C320.326 21.3906 320.146 21.7081 320.146 22.12C320.146 22.5148 320.301 22.8152 320.61 23.0211C320.936 23.2271 321.399 23.3301 322 23.3301C322.549 23.3301 323.073 23.2271 323.57 23.0211C324.068 22.798 324.463 22.5062 324.755 22.1458C325.046 21.7682 325.192 21.3734 325.192 20.9615Z" fill="#C6D6D7"/>
<path d="M341.499 15.6836V21.1674C341.499 21.6308 341.602 21.9655 341.808 22.1715C342.031 22.3775 342.392 22.4805 342.89 22.4805H346.005V26.0334H342.555C341.045 26.0334 339.877 25.6815 339.054 24.9778C338.23 24.2569 337.818 23.2357 337.818 21.9141V15.6836H334.471V12.3881H337.818V8.91246H341.499V12.3881H346.854V15.6836H341.499Z" fill="#C6D6D7"/>
<path d="M365.273 22.6607V26.0334H351.859V22.6607H356.725V15.7608H352.117V12.3881H360.407V22.6607H365.273ZM356.648 6.62109H360.433V10.2512H356.648V6.62109Z" fill="#C6D6D7"/>
<path d="M369.505 19.2108C369.505 17.8033 369.797 16.5589 370.38 15.4776C370.964 14.3791 371.779 13.5295 372.826 12.9288C373.89 12.3109 375.101 12.0019 376.456 12.0019C377.83 12.0019 379.04 12.3109 380.087 12.9288C381.151 13.5295 381.975 14.3791 382.558 15.4776C383.142 16.5589 383.434 17.8033 383.434 19.2108C383.434 20.6182 383.142 21.8711 382.558 22.9696C381.975 24.0509 381.151 24.9006 380.087 25.5185C379.04 26.1192 377.83 26.4196 376.456 26.4196C375.101 26.4196 373.89 26.1192 372.826 25.5185C371.779 24.9006 370.964 24.0509 370.38 22.9696C369.797 21.8711 369.505 20.6182 369.505 19.2108ZM379.752 19.2108C379.752 18.0093 379.46 17.0739 378.877 16.4045C378.31 15.7179 377.503 15.3746 376.456 15.3746C375.427 15.3746 374.62 15.7179 374.036 16.4045C373.47 17.0739 373.187 18.0093 373.187 19.2108C373.187 20.4122 373.47 21.3562 374.036 22.0428C374.62 22.7122 375.427 23.0469 376.456 23.0469C377.486 23.0469 378.293 22.7036 378.877 22.017C379.46 21.3305 379.752 20.3951 379.752 19.2108Z" fill="#C6D6D7"/>
<path d="M388.052 12.3881H391.734V13.6754H391.785C392.334 13.1262 392.927 12.7142 393.562 12.4396C394.197 12.1478 394.918 12.0019 395.724 12.0019C396.617 12.0019 397.449 12.2165 398.222 12.6456C398.994 13.0575 399.62 13.7012 400.101 14.5765C400.582 15.4347 400.822 16.5075 400.822 17.7947V26.0334H397.14V18.2839C397.14 17.4086 396.917 16.7048 396.471 16.1728C396.025 15.6407 395.381 15.3746 394.54 15.3746C393.665 15.3746 392.978 15.6321 392.48 16.147C391.983 16.6448 391.734 17.3399 391.734 18.2324V26.0334H388.052V12.3881Z" fill="#C6D6D7"/>
<path d="M65.6211 58.0622L76.2985 48.3461V48.2774H65.8614V43.7798H83.7487V47.6937L73.0713 57.4098V57.4785H84.1607V61.9761H65.6211V58.0622Z" fill="#C6D6D7"/>
<path d="M89.9763 36.9133H94.8858V50.7837H94.9545L101.924 43.7798H108.481L100.997 51.0583L108.756 61.9761H102.988L97.8041 54.2856H97.7354L94.8858 57.1695V61.9761H89.9763V36.9133Z" fill="#C6D6D7"/>
<path d="M114.572 37.9433H131.36V42.6125H119.653V47.4877H130.468V51.951H119.653V57.3069H131.429V61.9761H114.572V37.9433Z" fill="#C6D6D7"/>
<path d="M135.7 37.9433H141.09L146.48 54.7662H146.549L151.939 37.9433H157.364L149.055 61.9761H143.974L135.7 37.9433Z" fill="#C6D6D7"/>
<path d="M161.634 37.9433H166.2L170.355 50.097H170.423L174.578 37.9433H179.178V61.9761H174.269V49.891H174.2L171.316 57.9248H169.496L166.578 49.891H166.509V61.9761H161.634V37.9433Z" fill="#C6D6D7"/>
</svg>
