<svg width="402" height="75" viewBox="0 0 402 75" fill="none" xmlns="http://www.w3.org/2000/svg">
<path d="M22.3991 56.9057V74.778L0.789062 43.0898L22.3991 56.9057Z" fill="#0DAFD2"/>
<path d="M44.0099 43.0898L22.3984 74.778V56.9057L44.0099 43.0898Z" fill="#667BBC"/>
<path d="M44.0099 38.6249L22.3984 26.2974V52.4422L44.0099 38.6249Z" fill="#9E69AC"/>
<path d="M44.0099 38.6252L22.3984 0.963135V26.2976L44.0099 38.6252Z" fill="#F58B77"/>
<path d="M22.3991 0.963135V26.2976L0.789062 38.6252L22.3991 0.963135Z" fill="#F9EC7B"/>
<path d="M22.3991 26.2974V52.4422L0.789062 38.6249L22.3991 26.2974Z" fill="#54BC7A"/>
<path d="M65.9375 20.1996C65.9375 18.775 66.2293 17.5135 66.8129 16.415C67.3964 15.3165 68.2117 14.4669 69.2587 13.8662C70.3057 13.2655 71.5157 12.9651 72.8888 12.9651C74.2105 12.9651 75.3862 13.274 76.416 13.8919C77.463 14.5098 78.2783 15.3766 78.8619 16.4922C79.4454 17.6079 79.7372 18.878 79.7372 20.3026V21.3839H69.6191C69.6706 22.2421 69.9967 22.9373 70.5975 23.4693C71.1982 24.0014 71.9877 24.2675 72.9661 24.2675C73.6526 24.2675 74.2877 24.1216 74.8713 23.8298C75.4548 23.5208 76.0899 22.9973 76.7764 22.2593L79.0678 24.6021C78.2783 25.4775 77.3686 26.1641 76.3388 26.6618C75.3089 27.1424 74.1847 27.3827 72.9661 27.3827C71.5758 27.3827 70.3486 27.0823 69.2844 26.4816C68.2203 25.8809 67.3964 25.0398 66.8129 23.9585C66.2293 22.86 65.9375 21.6071 65.9375 20.1996ZM76.0298 18.7064C75.9612 17.9512 75.6265 17.3247 75.0257 16.8269C74.4422 16.3292 73.7299 16.0803 72.8888 16.0803C72.0135 16.0803 71.2926 16.3206 70.7262 16.8012C70.1598 17.2818 69.8079 17.9168 69.6706 18.7064H76.0298Z" fill="#989898"/>
<path d="M91.6418 16.6467V22.1306C91.6418 22.594 91.7448 22.9287 91.9507 23.1346C92.1739 23.3406 92.5343 23.4436 93.0321 23.4436H96.1473V26.9965H92.6974C91.1869 26.9965 90.0198 26.6446 89.1959 25.9409C88.3721 25.22 87.9601 24.1988 87.9601 22.8772V16.6467H84.6132V13.3513H87.9601V9.8756H91.6418V13.3513H96.9969V16.6467H91.6418Z" fill="#989898"/>
<path d="M102.388 8.20213H106.069V14.6128H106.121C107.082 13.5143 108.395 12.9651 110.06 12.9651C111.056 12.9651 111.939 13.2054 112.712 13.686C113.484 14.1666 114.085 14.8445 114.514 15.7199C114.943 16.5952 115.158 17.6079 115.158 18.7579V26.9965H111.476V19.247C111.476 18.3374 111.244 17.6251 110.781 17.1101C110.317 16.5952 109.682 16.3378 108.876 16.3378C108 16.3378 107.314 16.5952 106.816 17.1101C106.318 17.6079 106.069 18.303 106.069 19.1955V26.9965H102.388V8.20213Z" fill="#989898"/>
<path d="M119.647 20.1996C119.647 18.775 119.939 17.5135 120.523 16.415C121.106 15.3165 121.922 14.4669 122.969 13.8662C124.016 13.2655 125.226 12.9651 126.599 12.9651C127.92 12.9651 129.096 13.274 130.126 13.8919C131.173 14.5098 131.988 15.3766 132.572 16.4922C133.155 17.6079 133.447 18.878 133.447 20.3026V21.3839H123.329C123.381 22.2421 123.707 22.9373 124.307 23.4693C124.908 24.0014 125.698 24.2675 126.676 24.2675C127.363 24.2675 127.998 24.1216 128.581 23.8298C129.165 23.5208 129.8 22.9973 130.486 22.2593L132.778 24.6021C131.988 25.4775 131.079 26.1641 130.049 26.6618C129.019 27.1424 127.895 27.3827 126.676 27.3827C125.286 27.3827 124.059 27.0823 122.994 26.4816C121.93 25.8809 121.106 25.0398 120.523 23.9585C119.939 22.86 119.647 21.6071 119.647 20.1996ZM129.74 18.7064C129.671 17.9512 129.336 17.3247 128.736 16.8269C128.152 16.3292 127.44 16.0803 126.599 16.0803C125.723 16.0803 125.003 16.3206 124.436 16.8012C123.87 17.2818 123.518 17.9168 123.381 18.7064H129.74Z" fill="#989898"/>
<path d="M139.199 13.3513H142.726V14.6128H142.777C143.361 14.0292 143.962 13.6087 144.579 13.3513C145.214 13.0938 145.935 12.9651 146.742 12.9651C147.926 12.9651 148.948 13.3169 149.806 14.0207C150.664 14.7072 151.265 15.6512 151.608 16.8527L148.158 17.9855C147.763 16.8699 146.948 16.312 145.712 16.312C144.785 16.312 144.082 16.5866 143.601 17.1359C143.12 17.668 142.88 18.406 142.88 19.35V26.9965H139.199V13.3513Z" fill="#989898"/>
<path d="M155.454 20.1996C155.454 18.775 155.746 17.5135 156.33 16.415C156.913 15.3165 157.728 14.4669 158.775 13.8662C159.822 13.2655 161.032 12.9651 162.406 12.9651C163.727 12.9651 164.903 13.274 165.933 13.8919C166.98 14.5098 167.795 15.3766 168.379 16.4922C168.962 17.6079 169.254 18.878 169.254 20.3026V21.3839H159.136C159.187 22.2421 159.513 22.9373 160.114 23.4693C160.715 24.0014 161.504 24.2675 162.483 24.2675C163.169 24.2675 163.804 24.1216 164.388 23.8298C164.972 23.5208 165.607 22.9973 166.293 22.2593L168.584 24.6021C167.795 25.4775 166.885 26.1641 165.855 26.6618C164.826 27.1424 163.701 27.3827 162.483 27.3827C161.092 27.3827 159.865 27.0823 158.801 26.4816C157.737 25.8809 156.913 25.0398 156.33 23.9585C155.746 22.86 155.454 21.6071 155.454 20.1996ZM165.546 18.7064C165.478 17.9512 165.143 17.3247 164.542 16.8269C163.959 16.3292 163.247 16.0803 162.406 16.0803C161.53 16.0803 160.809 16.3206 160.243 16.8012C159.676 17.2818 159.325 17.9168 159.187 18.7064H165.546Z" fill="#989898"/>
<path d="M174.13 22.3623V13.3513H177.812V21.5127C177.812 23.1776 178.635 24.01 180.283 24.01C181.021 24.01 181.605 23.7869 182.034 23.3406C182.48 22.8772 182.703 22.2679 182.703 21.5127V13.3513H186.385V26.9965H182.858V25.7865H182.806C182.429 26.267 181.905 26.6532 181.236 26.945C180.583 27.2368 179.897 27.3827 179.176 27.3827C177.563 27.3827 176.318 26.945 175.443 26.0697C174.568 25.1771 174.13 23.9413 174.13 22.3623Z" fill="#989898"/>
<path d="M190.875 13.3513H194.119V14.5356H194.17C194.462 14.0721 194.831 13.7203 195.277 13.48C195.741 13.2225 196.247 13.0938 196.796 13.0938C197.877 13.0938 198.744 13.6001 199.396 14.6128H199.448C200.135 13.6001 201.079 13.0938 202.28 13.0938C203.275 13.0938 204.082 13.4457 204.7 14.1494C205.318 14.8531 205.627 15.7714 205.627 16.9042V26.9965H202.229V17.5478C202.229 17.1531 202.126 16.8527 201.92 16.6467C201.714 16.4408 201.422 16.3378 201.044 16.3378C200.684 16.3378 200.392 16.4579 200.169 16.6982C199.963 16.9213 199.86 17.2303 199.86 17.6251V26.9965H196.642V17.5478C196.642 17.1702 196.539 16.8784 196.333 16.6725C196.144 16.4493 195.869 16.3378 195.509 16.3378C195.131 16.3378 194.831 16.4579 194.608 16.6982C194.385 16.9213 194.273 17.2303 194.273 17.6251V26.9965H190.875V13.3513Z" fill="#989898"/>
<path d="M231.187 18.1657H227.582V14.8703H231.187V12.8621C231.187 11.6606 231.582 10.7166 232.371 10.0301C233.178 9.32635 234.285 8.9745 235.692 8.9745H239.657V12.2442H236.13C235.77 12.2442 235.495 12.3386 235.306 12.5274C235.117 12.7162 235.023 12.9822 235.023 13.3255V14.8703H240.481V18.1657H235.023V26.9965H231.187V18.1657Z" fill="#989898"/>
<path d="M244.971 20.1739C244.971 18.7665 245.263 17.5221 245.846 16.4408C246.43 15.3423 247.245 14.4927 248.292 13.8919C249.356 13.274 250.566 12.9651 251.922 12.9651C253.295 12.9651 254.505 13.274 255.552 13.8919C256.616 14.4927 257.44 15.3423 258.024 16.4408C258.607 17.5221 258.899 18.7665 258.899 20.1739C258.899 21.5813 258.607 22.8343 258.024 23.9328C257.44 25.0141 256.616 25.8637 255.552 26.4816C254.505 27.0823 253.295 27.3827 251.922 27.3827C250.566 27.3827 249.356 27.0823 248.292 26.4816C247.245 25.8637 246.43 25.0141 245.846 23.9328C245.263 22.8343 244.971 21.5813 244.971 20.1739ZM255.218 20.1739C255.218 18.9724 254.926 18.037 254.342 17.3676C253.776 16.681 252.969 16.3378 251.922 16.3378C250.892 16.3378 250.086 16.681 249.502 17.3676C248.936 18.037 248.652 18.9724 248.652 20.1739C248.652 21.3754 248.936 22.3194 249.502 23.0059C250.086 23.6753 250.892 24.01 251.922 24.01C252.952 24.01 253.759 23.6667 254.342 22.9802C254.926 22.2936 255.218 21.3582 255.218 20.1739Z" fill="#989898"/>
<path d="M263.647 22.3623V13.3513H267.328V21.5127C267.328 23.1776 268.152 24.01 269.8 24.01C270.538 24.01 271.121 23.7869 271.55 23.3406C271.997 22.8772 272.22 22.2679 272.22 21.5127V13.3513H275.902V26.9965H272.374V25.7865H272.323C271.945 26.267 271.422 26.6532 270.752 26.945C270.1 27.2368 269.414 27.3827 268.693 27.3827C267.079 27.3827 265.835 26.945 264.96 26.0697C264.084 25.1771 263.647 23.9413 263.647 22.3623Z" fill="#989898"/>
<path d="M281.421 13.3513H285.103V14.6386H285.154C285.704 14.0893 286.296 13.6774 286.931 13.4028C287.566 13.111 288.287 12.9651 289.093 12.9651C289.986 12.9651 290.818 13.1796 291.591 13.6087C292.363 14.0207 292.99 14.6643 293.47 15.5397C293.951 16.3978 294.191 17.4706 294.191 18.7579V26.9965H290.509V19.247C290.509 18.3717 290.286 17.668 289.84 17.1359C289.394 16.6038 288.75 16.3378 287.909 16.3378C287.034 16.3378 286.347 16.5952 285.849 17.1101C285.352 17.6079 285.103 18.303 285.103 19.1955V26.9965H281.421V13.3513Z" fill="#989898"/>
<path d="M298.398 20.1739C298.398 18.8008 298.664 17.565 299.196 16.4665C299.728 15.368 300.474 14.5098 301.436 13.8919C302.397 13.274 303.487 12.9651 304.705 12.9651C306.25 12.9651 307.46 13.377 308.335 14.2009H308.387V8.20213H312.069V26.9965H308.67V25.8122H308.619C307.606 26.8592 306.284 27.3827 304.654 27.3827C303.452 27.3827 302.371 27.0823 301.41 26.4816C300.466 25.8809 299.728 25.0398 299.196 23.9585C298.664 22.86 298.398 21.5985 298.398 20.1739ZM308.387 21.0492V19.2728C308.387 18.7579 308.25 18.2773 307.975 17.831C307.7 17.3848 307.314 17.0243 306.816 16.7497C306.336 16.4751 305.795 16.3378 305.195 16.3378C304.233 16.3378 303.47 16.6896 302.903 17.3933C302.354 18.0799 302.079 19.0067 302.079 20.1739C302.079 21.3239 302.362 22.2507 302.929 22.9544C303.495 23.6581 304.242 24.01 305.169 24.01C306.096 24.01 306.859 23.7268 307.46 23.1604C308.078 22.5768 308.387 21.8731 308.387 21.0492Z" fill="#989898"/>
<path d="M317.434 23.3406C317.434 22.0705 317.863 21.0836 318.721 20.3799C319.596 19.6761 321.047 19.1612 323.072 18.8351C324.136 18.6635 324.857 18.4747 325.235 18.2687C325.63 18.0456 325.827 17.7538 325.827 17.3933C325.827 16.9814 325.638 16.6553 325.26 16.415C324.883 16.1747 324.368 16.0546 323.716 16.0546C322.978 16.0546 322.334 16.2777 321.785 16.724C321.253 17.1702 320.909 17.7624 320.755 18.5004L317.331 17.728C317.502 16.8012 317.889 15.9773 318.489 15.2565C319.09 14.5356 319.845 13.9777 320.755 13.583C321.665 13.171 322.652 12.9651 323.716 12.9651C325.466 12.9651 326.865 13.4543 327.912 14.4326C328.959 15.4109 329.483 16.7154 329.483 18.3459V26.9965H326.187V25.4775H326.136C325.741 26.0782 325.183 26.5502 324.462 26.8935C323.759 27.2196 322.961 27.3827 322.068 27.3827C321.175 27.3827 320.377 27.2111 319.674 26.8678C318.97 26.5245 318.421 26.0439 318.026 25.426C317.631 24.8081 317.434 24.113 317.434 23.3406ZM325.981 21.9246V20.3799H325.93C325.775 20.6373 325.518 20.8433 325.158 20.9977C324.797 21.1522 324.231 21.3067 323.458 21.4612C322.497 21.6671 321.836 21.8903 321.476 22.1306C321.115 22.3537 320.935 22.6712 320.935 23.0832C320.935 23.4779 321.09 23.7783 321.399 23.9843C321.725 24.1902 322.188 24.2932 322.789 24.2932C323.338 24.2932 323.862 24.1902 324.359 23.9843C324.857 23.7611 325.252 23.4693 325.544 23.1089C325.835 22.7313 325.981 22.3365 325.981 21.9246Z" fill="#989898"/>
<path d="M342.288 16.6467V22.1306C342.288 22.594 342.391 22.9287 342.597 23.1346C342.821 23.3406 343.181 23.4436 343.679 23.4436H346.794V26.9965H343.344C341.834 26.9965 340.666 26.6446 339.843 25.9409C339.019 25.22 338.607 24.1988 338.607 22.8772V16.6467H335.26V13.3513H338.607V9.8756H342.288V13.3513H347.644V16.6467H342.288Z" fill="#989898"/>
<path d="M366.062 23.6238V26.9965H352.648V23.6238H357.514V16.724H352.906V13.3513H361.196V23.6238H366.062ZM357.437 7.58423H361.222V11.2144H357.437V7.58423Z" fill="#989898"/>
<path d="M370.294 20.1739C370.294 18.7665 370.586 17.5221 371.17 16.4408C371.753 15.3423 372.568 14.4927 373.615 13.8919C374.68 13.274 375.89 12.9651 377.246 12.9651C378.619 12.9651 379.829 13.274 380.876 13.8919C381.94 14.4927 382.764 15.3423 383.347 16.4408C383.931 17.5221 384.223 18.7665 384.223 20.1739C384.223 21.5813 383.931 22.8343 383.347 23.9328C382.764 25.0141 381.94 25.8637 380.876 26.4816C379.829 27.0823 378.619 27.3827 377.246 27.3827C375.89 27.3827 374.68 27.0823 373.615 26.4816C372.568 25.8637 371.753 25.0141 371.17 23.9328C370.586 22.8343 370.294 21.5813 370.294 20.1739ZM380.541 20.1739C380.541 18.9724 380.249 18.037 379.666 17.3676C379.099 16.681 378.293 16.3378 377.246 16.3378C376.216 16.3378 375.409 16.681 374.825 17.3676C374.259 18.037 373.976 18.9724 373.976 20.1739C373.976 21.3754 374.259 22.3194 374.825 23.0059C375.409 23.6753 376.216 24.01 377.246 24.01C378.275 24.01 379.082 23.6667 379.666 22.9802C380.249 22.2936 380.541 21.3582 380.541 20.1739Z" fill="#989898"/>
<path d="M388.841 13.3513H392.523V14.6386H392.574C393.124 14.0893 393.716 13.6774 394.351 13.4028C394.986 13.111 395.707 12.9651 396.513 12.9651C397.406 12.9651 398.238 13.1796 399.011 13.6087C399.783 14.0207 400.41 14.6643 400.89 15.5397C401.371 16.3978 401.611 17.4706 401.611 18.7579V26.9965H397.929V19.247C397.929 18.3717 397.706 17.668 397.26 17.1359C396.814 16.6038 396.17 16.3378 395.329 16.3378C394.454 16.3378 393.767 16.5952 393.269 17.1101C392.772 17.6079 392.523 18.303 392.523 19.1955V26.9965H388.841V13.3513Z" fill="#989898"/>
<path d="M66.4102 59.0253L77.0876 49.3092V49.2405H66.6505V44.743H84.5377V48.6569L73.8603 58.373V58.4416H84.9497V62.9392H66.4102V59.0253Z" fill="#36364C"/>
<path d="M90.7653 37.8765H95.6749V51.7468H95.7435L102.713 44.743H109.271L101.786 52.0215L109.545 62.9392H103.777L98.5931 55.2487H98.5245L95.6749 58.1327V62.9392H90.7653V37.8765Z" fill="#36364C"/>
<path d="M115.361 38.9064H132.149V43.5757H120.442V48.4509H131.257V52.9141H120.442V58.27H132.218V62.9392H115.361V38.9064Z" fill="#36364C"/>
<path d="M136.489 38.9064H141.879L147.269 55.7294H147.338L152.728 38.9064H158.153L149.844 62.9392H144.763L136.489 38.9064Z" fill="#36364C"/>
<path d="M162.423 38.9064H166.989L171.144 51.0602H171.212L175.367 38.9064H179.967V62.9392H175.058V50.8542H174.989L172.105 58.888H170.285L167.367 50.8542H167.298V62.9392H162.423V38.9064Z" fill="#36364C"/>
</svg>
